<svg xmlns="http://www.w3.org/2000/svg" width="1280" height="720" viewBox="0 0 1280 720" role="img" aria-labelledby="title desc">
  <title id="title">MCP connection diagram</title>
  <desc id="desc">MCP client connects to servers that expose tools, resources, and logs.</desc>
  <rect width="1280" height="720" fill="#f8fafc"/>
  <rect x="64" y="56" width="1152" height="608" rx="24" fill="#fff" stroke="#e2e8f0" stroke-width="3"/>
  <text x="100" y="126" fill="#111827" font-family="Arial, sans-serif" font-size="42" font-weight="700">MCP 安装与连接结构</text>
  <g font-family="Arial, sans-serif">
    <rect x="110" y="248" width="260" height="188" rx="18" fill="#eef2ff" stroke="#4f46e5" stroke-width="3"/>
    <text x="154" y="320" fill="#111827" font-size="28" font-weight="700">MCP Client</text>
    <text x="154" y="364" fill="#475569" font-size="21">Codex / Claude / IDE</text>
    <rect x="510" y="170" width="260" height="132" rx="18" fill="#ecfeff" stroke="#0891b2" stroke-width="3"/>
    <text x="554" y="248" fill="#111827" font-size="27" font-weight="700">GitHub Server</text>
    <rect x="510" y="372" width="260" height="132" rx="18" fill="#f0fdf4" stroke="#16a34a" stroke-width="3"/>
    <text x="554" y="450" fill="#111827" font-size="27" font-weight="700">Browser Server</text>
    <rect x="910" y="248" width="250" height="188" rx="18" fill="#fff7ed" stroke="#f97316" stroke-width="3"/>
    <text x="950" y="320" fill="#111827" font-size="28" font-weight="700">Tools</text>
    <text x="950" y="364" fill="#475569" font-size="21">resources</text>
    <text x="950" y="394" fill="#475569" font-size="21">actions</text>
    <path d="M390 330c48-80 74-94 104-94" stroke="#64748b" stroke-width="6" fill="none" stroke-linecap="round"/>
    <path d="M390 360c48 80 74 94 104 94" stroke="#64748b" stroke-width="6" fill="none" stroke-linecap="round"/>
    <path d="M788 236c52 76 78 94 104 94" stroke="#64748b" stroke-width="6" fill="none" stroke-linecap="round"/>
    <path d="M788 454c52-76 78-94 104-94" stroke="#64748b" stroke-width="6" fill="none" stroke-linecap="round"/>
  </g>
</svg>
