<?xml version="1.0"?>
<svg xmlns="http://www.w3.org/2000/svg" viewBox="0 0 2090 2600" width="2090" height="2600">
	<g fill="#cfe0d2" stroke="#ffffff" stroke-width="5">
		<path id="Hokkaido" d="m1455.25,70.5 c0.7215,-15.65433 20.5239,-13.82693 29,-4.25 l43,48.5 c5.0031,5.643 11.0252,9.82219 16.25,16 7.1317,8.43254 13.0861,14.85281 19,19 9.427,6.61083 18.5537,15.96177 27.5,25.5 6.9834,7.44551 12.8615,15.87764 20.75,19 3.8188,1.51153 7.5188,3.85787 11.25,7.5 2.3704,2.31376 4.6087,4.70567 8.75,7.25 4.0029,2.45934 3.6958,2.89031 8.25,6.75 7.2864,6.17521 18.7187,14.81157 27,15.25 9.608,0.50867 19.1193,8.54065 27.25,14.5 12.5284,9.18263 26.842,13.31155 40.25,14.5 16.3172,1.44632 42.8746,3.99049 51.5,5.25 15.8859,2.31971 34.0066,2.46789 38.25,-2.25 6.3152,-7.02135 13.9675,-8.03688 17.75,-12.5 5.4356,-6.4138 9.7362,-9.82586 10.75,-15.25 1.913,-10.23587 7.2289,-18.12327 17,-27 19.3989,-17.62322 17.2338,-20.21312 16.25,2.75 -0.3457,8.06879 -1.9335,16.04472 -6.75,21.5 -4.879,5.52604 -6.9327,10.54286 -9.25,13 -5.7785,6.12734 -5.6079,24.86575 -4.25,34.75 0.8906,6.48273 3.9344,14.86065 4.25,18.25 0.3943,4.23455 2.1039,8.74549 5.25,12.25 3.4372,3.82882 5.198,6.5934 6.75,9.75 1.4389,2.92673 2.7778,6.10052 5.5,9 4.5071,4.80073 6.1388,10.47387 9.25,15.25 9.0249,13.85444 18.8597,18.7539 32.25,13.25 48.6312,-19.98914 13.6336,-1.80812 8.5,7.25 -6.8078,12.01213 -12.6457,22.10479 -27.5,27 -10.335,3.4059 -20.714,8.96014 -28.25,18 -8.2644,9.91367 -15.3417,16.10182 -23.75,5.75 -14.0107,-17.24918 -21.7175,1.73284 -14.25,10.75 10.2323,12.35578 7.5066,10.52551 -3,11 -6.5236,0.29461 -14.1757,0.75917 -21.5,-2 -13.4491,-5.06647 -26.0443,-11.36397 -39.25,0.25 -3.4152,3.00353 -3.4413,5.3969 -10.75,11.25 -13.4616,10.7806 -22.6872,21.6 -32,33 -3.6106,4.4198 -5.6046,10.0356 -9.5,12.5 -6.3758,4.0335 -8.6424,8.8654 -10.5,14.25 -2.5371,7.3545 -7.5465,11.0875 -10,15.25 -7.788,13.2127 -8.1011,27.8441 -8.75,46.5 l-1,28.75 c-0.7379,21.2157 0.0797,20.9648 -16.5,11.25 -8.2309,-4.8229 -16.529,-7.1436 -31,-10 -12.0459,-2.3777 -24.3844,-3.4232 -35.75,-8.5 -2.7902,-1.2463 -5.4255,-4.5054 -10,-5.5 -4.7042,-1.0229 -7.9443,-3.7855 -12.5,-7.75 -2.5264,-2.1986 -5.0395,-4.9617 -8.75,-6.5 -6.3413,-2.6289 -7.2726,-4.5099 -10,-7 -5.4677,-4.9919 -10.4766,-10.9448 -18.75,-15.25 -7.2626,-3.7792 -12.061,-6.9602 -17.25,-11.25 -4.6802,-3.8691 -10.003,-5.5693 -18.75,-5.75 -12.9638,-0.2679 -25.1677,-1.2519 -37,2.25 -3.3524,0.9922 -9.6257,1.9177 -15.25,3.25 -13.0068,3.081 -12.9891,5.8623 -16.75,10.25 l-27,31.5 c-10.1989,11.8987 -8.9343,9.5924 -13,-0.75 -3.4061,-8.6643 -5.444,-13.7732 -9.75,-19.5 -4.4458,-5.9127 -9.4244,-11.2619 -22.25,-11 -4.0637,0.083 -8.8757,1.1691 -14.75,2 -3.4842,0.4929 -6.5402,0.619 -11.25,4.5 -2.7788,2.2899 -4.0105,3.0448 -6.75,5.25 -9.8441,7.9243 -7.8526,17.1844 -7.5,26 l0.5,12.5 c5.0725,12.6848 17.8865,17.6024 28,19.75 6.486,1.3773 20.0605,1.5243 28.5,0.5 7.0724,-0.8583 10.6847,1.6105 10.25,9 l-0.5,8.5 c-0.2685,4.5651 3.6544,5.2232 6.75,6.5 11.3678,4.6887 21.3292,9.0545 29.75,10.75 12.7695,2.5711 11.2428,7.468 6,13.75 -4.4318,5.3103 -8.5613,8.6052 -11.75,12.75 -5.2759,6.8576 -10.8864,7.2963 -17.25,5.25 -3.4814,-1.1195 -7.0714,-1.5568 -12.5,-2.25 -4.9596,-0.6334 -8.7866,-3.3995 -12.25,-8 -5.6247,-7.4714 -9.3691,-4.6959 -12,-1.75 -5.8661,6.5685 -12.1366,13.2277 -16.25,20.5 -2.6476,4.6809 -4.9309,7.675 -3.25,19 1.1268,7.5914 -0.4141,13.443 -1.75,19 -0.9314,3.8745 -4.1398,6.4343 -6.25,9.25 -4.4889,5.9898 -9.1599,5.99 -14.75,2 -2.8012,-1.9994 -6.6142,-1.6568 -10.75,-3 -8.752,-2.8424 -12.4527,-9.9881 -16.25,-16 -3.866,-6.1206 -5.0987,-25.0993 3.25,-31.5 l7.5,-5.75 c4.9318,-3.5034 5.7214,-6.1945 6,-12.5 l-2,-15.75 c-0.6693,-5.2704 -3.2182,-8.5571 -11.25,-15.5 -2.6533,-2.2936 -4.0508,-6.3985 -7.5,-8.5 -5.0982,-3.1062 -10.362,-6.0771 -14.75,-10.5 -2.4438,-2.4631 -5.663,-5.1063 -10,-7 -8.3702,-3.6547 -7.9534,-7.7517 -8.5,-15 v-26.75 c0,-5.0154 -0.2815,-10.2504 3.25,-14.5 2.2111,-2.6607 2.0219,-7.0966 5.25,-11.25 5.1098,-6.5745 7.2341,-9.9485 10.25,-11.5 4.5375,-2.3343 7.6997,-3.2728 10.25,-5.5 3.8339,-3.3482 6.4164,-4.4462 8.25,-5.25 5.293,-2.3204 8.6481,-5.428 11,-7.5 7.3779,-6.4999 13.7414,-12.9025 19,-19.5 7.4558,-9.3543 11.2886,-24.33 2,-31.25 -6.4524,-4.807 -10.4472,-9.9116 -12,-16 -1.453,-5.69724 -4.0456,-11.87392 5,-20 7.4581,-6.69991 26.7302,-7.6877 37,-2.75 5.893,2.83333 2.0667,10.87697 18.25,9.25 10.4605,-1.05163 22.0519,-0.171 30.5,-0.5 17.6678,-0.68806 25.5817,-12.7819 28,-24 l0.75,-36.75 c0.1197,-5.86376 1.0236,-10.281 -3.5,-10.5 -11.889,-0.57558 -2.3762,-18.57268 0.5,-21 5.0229,-4.2389 6.9774,-6.46253 9.75,-8.25 4.2037,-2.71013 8.6878,-7.79913 8.5,-16 l-0.75,-32.75 c-0.1382,-6.03536 -0.5563,-9.29298 -4.25,-10.75 -6.4631,-2.5495 -3.591,-7.39186 0.5,-10 4.7208,-3.00967 3.9319,-6.2088 4,-9.75 l0.75,-39 c0.1059,-5.50539 0.9615,-10.41914 4.5,-14.75 2.8814,-3.52658 3.1612,-10.85075 1.25,-16.5 -1.1322,-3.34665 -3.1459,-6.70855 -3.75,-10.75 -0.614,-4.10816 -3.9839,-9.17226 -11.25,-16 -6.2289,-5.85319 -11.7982,-11.97128 -12.25,-16.5 -0.3676,-3.6856 -5.0752,-5.8651 -7.25,-9.5 -6.3459,-10.60626 -3.586,-24.73944 2,-32 l9.75,-7.5 c5.156,-3.96612 6.7024,-4.42087 6.75,-7.75 z"/>
		<path id="Honshu" d="m1424.5,745.5 c-1.4143,-15.6203 17.4491,-20.2427 24.5,-11 8.8076,11.5454 20.8776,10.8048 27.5,6 9.0049,-6.5335 15.212,-8.1621 15.25,5 0.0322,11.1519 0.6997,15.2369 1,19 0.4204,5.2674 -0.0713,11.0397 1.75,16 1.4716,4.008 5.4928,4.515 6.5,17.25 0.4855,6.1382 -0.2163,17.8658 -0.75,24 -0.8389,9.6419 0.3901,15.4877 2.5,19.5 2.3092,4.3911 5.2154,10.8678 7.75,12.75 6.8044,5.0529 12.4514,12.8954 16.5,18.5 4.2996,5.9521 9.1643,11.6111 13.5,15.5 9.5454,8.5619 17.2735,19.9681 23,29 7.9005,12.4608 13.6821,27.5285 28,40.75 8.4237,7.7787 15.9666,26.7698 21,43.75 3.9617,13.3647 9.4794,27.3324 1.5,50 -1.7027,4.837 -2.3749,12.0953 -2.5,14.5 -0.5962,11.4575 -4.2976,23.1699 -5.5,30.5 -0.7578,4.6196 -10.3719,19.2497 -14.5,22.5 -15.1612,11.9374 -26.2585,46.5516 -16,74 2.2781,6.0956 5.7479,15.324 10,20.25 6.0653,7.0265 5.0471,17.2334 -4.5,15 -2.6932,-0.63 -5.3906,-0.9611 -7.5,-2.75 -4.1491,-3.5187 -15.5287,-4.7193 -22.75,-0.75 -7.4534,4.0968 -18.1628,13.559 -25.75,20.5 -4.9877,4.5629 -8.8006,13.7963 -8.5,19.75 0.5539,10.9692 1.5588,22.7234 3,33 1.1421,8.1439 5.4297,18.1037 10.5,24.5 8.0048,10.0982 14.3898,26.63 18,39 1.8662,6.3943 2.0039,15.5718 3.75,22 1.5471,5.6956 4.1125,13.5261 4.25,20 0.168,7.9068 -0.1909,17.997 -0.5,24.5 -0.4579,9.635 -3.118,20.7676 -7.5,26 -10.6001,12.6573 -9.1729,18.996 -11,24.5 -3.1116,9.3735 -7.742,18.7109 -11.5,26.5 -3.7425,7.7571 -6.2813,18.752 -6,27 0.3324,9.7444 0.2893,23.2501 0.25,33 -0.0666,16.5251 6.9063,35.9033 17.75,48.5 4.9899,5.7966 13.0447,14.1391 18.5,19.5 6.8536,6.735 15.0207,15.0262 -1.75,23 -5.8768,2.7942 -12.2235,7.545 -18.25,10 -16.5372,6.7366 -15.0704,21.1069 -14.75,32.75 0.2221,8.0727 -2.0945,21.0039 -1.25,31 1.6986,20.1066 -4.6552,24.7563 -13,28.25 -6.7,2.8051 -13.6064,10.2107 -18.75,13.25 -10.5265,6.2201 -11.0854,13.6402 -11.75,16.75 -1.6659,7.7954 -8.6218,13.9251 -16.5,15 -6.0026,0.819 -11.6276,-2.6026 -10.5,-12 0.5186,-4.3216 0.2412,-8.7608 -1.5,-12.75 -1.5836,-3.6281 -3.2912,-9.6095 -3.5,-13.25 -0.524,-9.1349 -0.2615,-21.6 -0.25,-30.75 0.028,-22.3461 5.5935,-18.3001 10.75,-23.5 3.0472,-3.0728 10.0326,-10.2036 12.75,-13.25 17.0715,-19.1387 -7.1762,-25.569 -23.75,-18 -3.9663,1.8114 -9.5396,3.9258 -13.5,5.75 -11.0437,5.0867 -11.3549,14.8543 -10.5,25.75 0.5935,7.5638 4.5182,15.3482 7.5,19 21.8843,26.8018 -10.5206,43.5201 -14,25 -1.263,-6.7225 -4.0148,-12.5265 -15,-12 -7.9069,0.3789 -18.8114,-0.5602 -25.75,3.25 -5.8638,3.22 -12.4271,8.5432 -15,17.25 -0.9343,3.1617 -2.1956,9.1817 -1.5553,14.4465 0.3459,2.8451 1.2471,5.4696 3.0553,7.3035 3.8491,3.9038 7.5556,8.3947 7.25,14.25 -0.3128,5.9918 -0.5364,14.024 0,20 0.8552,9.528 -3.8401,15.1189 -8.5,17.75 -3.8835,2.1928 -6.6717,7.9622 -10.5,10.25 -11.1066,6.6374 -6.9046,10.3592 -8.5,14.5 -6.5148,16.9088 -21.8849,-4.4907 -21,-19.5 0.5808,-9.851 0.2165,-25.179 0.5,-31 0.9355,-19.2113 -11.2243,-18.0791 -19.75,-14.25 -8.4523,3.7962 -14.518,8.8209 -18.75,10.25 -5.8916,1.9895 -11.3525,9.7969 -11.5,16.5 -0.2503,11.3757 -3.3664,20.8623 -8.25,25.5 -9.9055,9.4068 -8.8912,16.7613 -9.25,19.75 -2.289,19.0652 -8.517,14.1296 -17,15.25 -21.6221,2.8558 -57.8917,-1.488 -79.25,2.5 -2.8442,0.5311 -32.2631,6.7331 -42.25,10.5 -16.0639,6.059 -40.9327,13.4437 -5,-9 5.4815,-3.4238 17.36,-17.1059 -6,-15 -3.3705,0.3038 -7.7889,1.4319 -11,2.5 -19.165,6.3746 -18.2689,15.3384 -29.5,-3 -2.95,-4.8169 -3.9051,-12.8661 -3.5,-18.5 1.2761,-17.7452 -1.0915,-14.9415 -14.25,-10.75 -3.4844,1.1099 -14.6073,7.8825 -16.75,11.75 -2.8956,5.2265 -8.0378,14.5631 -10.5,19.25 -3.2467,6.1804 -6.3489,13.075 1,17.5 4.0435,2.4347 13.3956,7.6419 17.25,11.5 3.3908,3.394 10.9839,6.5854 15.75,9 10.7714,5.457 51.2775,28.6518 13.5,45.25 -2.7701,1.2171 -9.4047,-1.2487 -14.75,1 -8.9901,3.782 -24.2035,5.7786 -33.25,11.5 -9.1445,5.7833 -19.2988,5.9938 -18,22.5 1.2464,15.8399 -4.1299,18.4701 -17.5,29.5 -17.8979,14.7652 -17.3519,9.3734 -17.25,34.5 0.0555,13.6894 2.7898,25.8235 -7.25,28.25 -7.6303,1.8441 -12.7634,8.7115 -14.25,10 -3.6883,3.1968 -6.7464,9.3435 -15,8.25 -1.7182,-0.2277 -5.0231,-3.0484 -8.25,-3 -3.4221,0.0514 -6.6932,-1.3555 -11,-5 -4.7722,-4.0384 -11.8017,-8.1857 -18,-9 -2.215,-0.291 -4.8487,-0.8971 -14.25,-7.5 -1.9438,-1.3652 -4.5295,-6.1969 -6.5,-8.25 -3.3047,-3.4433 -7.3524,-6.5042 -8.25,-10.75 -1.2711,-6.0127 -6.3218,-12.0667 -13.5,-13.5 -6.3728,-1.2725 -12.8738,-11.9956 -10.5,-21.5 1.8782,-7.5199 1.1806,-18.2667 0,-23.5 -4.5006,-19.9508 -2.4531,-24.063 6.5,-28.75 4.2367,-2.2179 11.1943,-7.3271 13.75,-11 2.2107,-3.177 4.6261,-7.3021 7.75,-10 5.2919,-4.5703 8.7909,-11.0286 8.25,-18 -0.6009,-7.7441 1.4298,-18.9058 -13,-16.75 -8.2338,1.2301 -20.965,7.8221 -37.75,2 -6.8012,-2.3591 -16.3143,-4.2516 -24.5,-3.5 -10.49435,0.9635 -19.85689,-3.0055 -30.25,-4.75 -15.30984,-2.5697 -34.50465,-2.6619 -39.5,3 -6.9454,7.8722 -19.97447,18.4129 -25.75,21 -15.76178,7.0605 -18.86978,14.0861 -19.5,16.75 -2.31574,9.7886 -21.65357,13.0399 -25.5,8 -3.1986,-4.1911 -11.94342,-8.7771 -15.5,-3 -2.37512,3.858 -6.75792,5.1837 -14.5,3.5 -6.5546,-1.4254 -15.73318,4.033 -15.5,9.5 0.35857,8.4068 -7.78672,10.1823 -14.5,5 -7.99326,-6.1704 -23.24619,3.6777 -26,7.75 -6.83508,10.1077 -17.51275,13.4253 -26.5,14.25 -8.90347,0.817 -24.27552,6.9038 -28,13.25 -5.25564,8.9551 -22.04869,14.5217 -30,-0.75 -10.94118,-21.0142 -43.6214,-10.7437 -36.5,8 3.21624,8.4652 -3.58984,25.6001 -5.75,27.5 -6.57274,5.7809 -5.65441,21.2087 -6.5,26 -0.83552,4.7343 1.42267,22.3961 -7.25,12 -2.33324,-2.7969 -4.6951,-3.0441 -7,-4 -3.63693,-1.5083 -7.58178,-5.3928 -10,-8.5 -1.84034,-2.3647 -5.63321,-6.5907 -10.5,-9 -3.12536,-1.5472 -8.80933,-4.9923 -11,-5.75 -20.43341,-7.0674 -41.71246,-3.8398 -46.5,1.75 -2.38145,2.7805 -6.06463,5.9443 -9.5,7.5 -6.38138,2.8898 -9.00051,7.5401 -11.5,9 -5.83601,3.4087 -14.42056,4.8322 -18.5,-4.5 -0.75282,-1.7222 -2.03323,-3.8882 -3,-5.5 -1.87156,-3.1202 -2.34371,-11.3195 -10.5,-6.5 -3.41244,2.0164 -7.08891,0.323 -9,-2.5 -0.76016,-1.1229 -5.31408,-4.7305 -7,-4.5 -4.71319,0.6445 -8.05781,-3.2611 -5.75,-9.25 2.55109,-6.6202 1.57137,-18.2792 2.25,-25.75 0.52096,-5.735 3.3412,-13.7568 15.5,-12.5 4.42016,0.4569 12.01253,0.7612 14.5,-1.25 6.5252,-5.2757 13.89901,-4.6191 19.5,-6.25 11.82605,-3.4435 15.25856,-12.8432 18.5,-19.5 4.47601,-9.1922 15.62765,-22.413 25.75,-21 8.87369,1.2387 14.96504,-2.1392 26.75,-17.5 5.69469,-7.4226 12.9737,-17.1116 20.5,-23.5 11.17177,-9.4827 15.93503,-17.2538 22.25,-25 12.41703,-15.2312 31.3853,-29.864 44.25,-42.5 4.80215,-4.7168 11.03697,-11.4816 12.25,-17.25 1.08732,-5.1706 11.00956,-15.1774 21.5,-21.25 7.50508,-4.3445 16.08176,-9.3988 18.5,-13.75 2.87922,-5.1807 9.53241,-6.1445 16.25,-6.25 12.84087,-0.2017 12.51482,5.8234 8.5,9.75 -4.46216,4.3641 2.56354,10.5431 9,9.75 5.6572,-0.6971 14.59592,0.472 20.25,-0.25 14.25035,-1.8198 16.29182,-13.98 38.5,-12 9.68009,0.863 24.13495,0.7642 31.5,0 6.18951,-0.6422 13.88625,-3.167 19.75,-5.25 7.04782,-2.5036 12.03446,-9.1607 24,-10.5 6.94892,-0.7778 15.48097,-6.6914 21.5,-10.25 7.73356,-4.5723 5.95491,-7.5375 21.25,-8 15.15034,-0.4656 21.85596,4.6093 31.75,5.25 16.64561,1.0779 16.44359,-2.6467 24.5,-8 3.2793,-2.1791 6.2261,-7.2856 8.5,-10.5 5.4173,-7.6579 9.4872,-11.8344 15,-11 8.5127,1.2885 9.8684,6.0896 9.5,12 -0.4558,7.3128 -2.1519,14.3547 -1.5,18 3.3268,18.6025 12.772,21.4592 16,10.5 2.8229,-9.5838 14.086,-15.0089 17.25,-7.75 1.4483,3.3228 3.8159,6.8929 6.1586,8.3962 4.7598,3.0542 9.8558,0.9174 13.0914,-0.6462 4.6134,-2.2294 9.4963,-2.7231 13,-5 3.5574,-2.3119 7.9544,-6.46 9.25,-10.5 3.5137,-10.9564 12.6448,-9.4081 16.5,-11.5 25.753,-13.9742 11.3227,-34.3424 6.75,-39.5 -9.7436,-10.9899 -15.4291,-20.5034 -6.25,-30.25 5.4272,-5.7628 11.8158,-12.6723 15.75,-21.25 3.453,-7.5286 11.1338,-15.7976 16,-22.5 9.324,-12.8424 22.3974,-29.3282 31.25,-42.5 2.7408,-4.0781 5.7411,-10.9342 8.5,-15 11.0713,-16.3158 5.2997,-61.3508 0.75,-70 -5.5763,-10.6008 -12.6757,-23.9507 -2,-34.5 2.951,-2.9161 6.6127,-7.1069 9,-10.5 3.2435,-4.6101 13.8769,-11.9862 19,-12.5 18.5262,-1.8579 22.0349,-8.8835 24.5,-13.5 4.3365,-8.1213 22.8013,-14.3281 29,-5.5 4.0509,5.7693 -0.1947,20.6694 -2.75,22.5 -2.1982,1.5748 -6.3747,8.6717 -7.75,11 -5.0443,8.54 -17.5623,15.8324 -24.5,19.5 -7.3155,3.8673 -13.9738,15.0633 -3.5,17.5 9.5373,2.2188 12.451,7.3103 6,14 -4.5131,4.6801 6.6077,30.838 22.5,33 14.4707,1.9686 22.2969,-8.2735 22.25,-16.75 -0.0277,-5.0009 3.8701,-9.1803 5.75,-9.75 3.2546,-0.9862 7.5466,-6.4368 10.25,-8.5 4.8283,-3.6851 15.0603,-2.0126 21,-4 12.1437,-4.0634 17.7103,-4.9491 23.75,-10.5 4.7546,-4.3698 12.2385,-6.5787 16,-10.75 2.8176,-3.1246 7.8957,-6.7249 12.5,-8.75 4.6136,-2.0291 9.9161,-6.4563 13.5,-10 3.9257,-3.8816 9.6861,-8.1159 14,-11 5.7321,-3.8323 11.3189,-11.9672 15.75,-17.25 4.1347,-4.9295 6.6796,-12.4264 8.75,-18.75 1.7222,-5.2603 4.4341,-16.6426 8.5,-22.5 5.7588,-8.2962 8.9193,-17.0898 9.5,-21.75 2.2213,-17.8269 28.0662,-41.8626 36,-45.75 18.7305,-9.1776 36.4175,-37.1532 37,-60 0.2378,-9.3272 -0.8815,-28.6665 1.75,-32 2.3538,-2.9817 4.3591,-7.2535 5.9274,-11.5258 1.2908,-3.5164 1.9115,-6.0623 1.8226,-8.7242 -0.3167,-9.4834 4.498,-18.5426 11,-27.25 7.2006,-9.6429 15.6369,-33.6566 15,-40.75 -1.0584,-11.7877 -1.6256,-22.2377 3.5,-29.25 3.4168,-4.6745 5.0687,-12.726 5.5,-18.5 0.8086,-10.8243 -0.0158,-37.3476 0,-50.5 0.0065,-5.4208 0.1921,-13.5633 -4,-17 -4.3077,-3.5315 -6.7577,-10.8272 -6.5,-16.5 0.2247,-4.9472 -0.446,-11.6389 0.5,-16.5 1.9805,-10.1767 -6.388,-20.3388 -6.75,-0.5 -0.0831,4.8049 -1.2316,7.2159 -2.5,10 -9.6043,21.082 -31.9596,11.0647 -31.25,-0.5 0.6332,-10.3198 9.9308,-19.0187 15.5,-23 5.7476,-4.1088 14.4834,-17.579 15,-29.75 0.2799,-6.5941 1.2114,-16.2231 1,-21.75 -0.2269,-5.9314 -1.1606,-12.9069 -7.25,-17.5 -4.2287,-3.1896 -8.5397,-8.4762 -10.25,-11.5 -2.0691,-3.6581 -4.8916,-8.6714 -8,-11.5 -11.3915,-10.3662 -1.7154,-16.14 5,-19.5 3.3131,-1.6577 8.398,-2.4745 11.5,-4.5 16.2882,-10.6357 20.36,-21.2551 23.25,-32 1.1538,-4.2897 -0.3714,-37.3892 -0.25,-41 0.2322,-6.909 3.7595,-22.2971 10,-20.25 4.1005,1.3451 9.9324,-1.0611 13,-2.75 13.4352,-7.397 18.58,4.7645 22,14.75 1.247,3.6409 -0.7587,17.0319 0,24.75 0.7005,7.1264 6.3247,12.6653 10.5,17.25 4.089,4.49 13.847,9.0674 19,-6.25 3.018,-8.9711 13.0674,-17.0376 25,-5.25 5.9493,5.877 8.5154,7.2114 16,-4.5 3.343,-5.2308 0.5627,-28.4912 0.75,-39.25 0.2806,-16.1244 -9.8877,-15.4593 -18.75,-5 -3.8119,4.4989 -17.2864,20.5861 -39.5,11.5 -8.8028,-3.6007 -0.2368,-18.8501 3.5,-25.5 2.1159,-3.7654 5.5965,-9.9116 5,-16.5 z"/>
		<path id="Awaji-island" d="m780,1973.5 c-0.51711,-7.897 2.05907,-10.9298 4.25,-15.25 2.34558,-4.6251 5.81062,-6.192 7.25,-7.75 1.85459,-2.0074 5.00936,-5.3614 6.25,-8.25 1.2585,-2.9302 6.795,-4.4668 8,-7.75 1.1582,-3.1558 5.5807,-4.4617 9.25,-3.25 5.5709,1.8396 7.8811,6.8546 6.25,12 -0.7309,2.3056 -1.2232,6.4595 -2,8.75 -1.1444,3.3743 -2.7688,6.1928 -5.25,8.75 -6.1048,6.2917 -5.3223,11.921 -5.25,13 1.3167,19.6403 -15.92,20.8371 -23,12.75 -2.68404,-3.0658 -5.09196,-2.9507 -5.75,-13 z"/>
		<path id="Shikoku" d="m692.5,1978.5 c3.0443,2.3146 10.56643,5.7994 12.5,2.5 2.36913,-4.0427 6.78196,-4.4454 12,-2 2.8109,1.3173 5.26424,4.7249 10.5,5 10.6812,0.5612 11.28198,6.012 11.5,6.75 1.19842,4.0565 12.75797,5.3019 16.75,4.5 11.81348,-2.373 12.73901,2.0703 12.25,6.25 -1.05876,9.0495 4.33292,20.8588 9.25,22.25 5.18171,1.466 7.23323,9.0478 8.25,18.25 0.90548,8.195 -3.96995,16.088 -9,19.5 -14.99487,10.1714 -33.22617,27.4401 -43.25,41.75 -2.34856,3.3528 -4.28791,11.2341 -8,17.5 -3.4726,5.8617 -4.92328,11.8413 -6.75,17.75 -2.19986,7.1157 -6.41239,13.8509 -15,4.5 -3.63728,-3.9606 -10.40072,-5.8879 -15.5,-14 -2.44358,-3.8873 -8.3223,-7.501 -12,-10.25 -6.18379,-4.6223 -13.37793,-7.8136 -25,-7.25 -6.75238,0.3274 -17.03746,-1.9807 -21.75,8.5 -1.7933,3.9883 -8.08126,10.357 -14,12.75 -11.27166,4.5573 -22.80711,9.0949 -23.25,25.5 -0.32143,11.906 -3.77004,17.1761 -8.25,24 -3.72331,5.6714 -8.39832,13.8064 -14.25,18.75 -7.95405,6.7197 -15.18888,15.4162 -8.5,22 4.36456,4.296 8.03969,17.4126 -5,15 -6.05931,-1.1211 -15.19642,0.2635 -20,5.5 -6.28906,6.8559 -14.6797,10.066 -20.5,0 -3.79007,-6.5548 -9.54237,-14.8796 -14,-21 -5.62969,-7.7297 -13.76687,-10.0835 -20.5,2.5 -3.82262,7.1441 -20.80868,28.7055 -5,-2.5 3.18315,-6.2834 8.64662,-13.2933 9.75,-20.25 1.49723,-9.4398 2.88672,-17.5218 6.5,-20.75 4.92549,-4.4005 5.23085,-9.6482 2.25,-12 -3.53483,-2.7888 -5.4971,-10.9371 -8.25,-14.5 -11.87527,-15.3694 -22.23573,-9.0819 -36.75,-9 -32.25895,0.1821 -16.50149,-3.3926 0,-6 20.46852,-3.2343 27.99762,-17.2078 39.5,-27.25 3.27686,-2.8609 7.46822,-7.6005 11.25,-9.75 7.88956,-4.4843 9.85776,-8.494 10.5,-14.75 0.55442,-5.4005 3.01682,-11.5035 6.25,-14.25 6.05667,-5.145 5.47296,-12.125 5.5,-13.75 0.17565,-10.555 6.41887,-19.1482 13,-25.25 14.78215,-13.7056 21.4226,-3.4068 29.5,7 5.817,7.4945 12.95659,17.7922 21,7.5 5.32591,-6.8149 16.73012,-7.5558 20.5,-7 15.46895,2.2805 28.75533,-10.991 29,-19.75 0.3412,-12.2146 -1.14802,-18.0807 14.5,-27 5.34932,-3.0491 11.97464,-8.5747 16.5,-12.75 7.92476,-7.3118 18.27839,-10.3708 26,-4.5 z"/>
		<path id="Kyushu" d="m281,2064 c0.69502,-0.695 9.72527,21.4719 15,31 7.81102,14.1096 24.67472,26.3146 35.75,27.75 12.88483,1.6699 20.17378,-2.3888 22.25,-4.75 17.3835,-19.7699 49.14359,6.8221 28,30 -7.77756,8.5259 -12.45203,23.5412 9.75,22.75 12.7361,-0.4539 15.51651,10.7313 19.25,16.25 4.99407,7.3821 10.11207,18.6692 15.5,25 7.36415,8.6529 6.96923,21.6233 -1,30 -7.10164,7.4648 -7.07742,11.2326 -7.5,16.75 -0.73511,9.5979 -9.52116,18.4271 -13.75,22.25 -14.52982,13.1352 -15.04284,37.583 -15.25,44.25 -0.51795,16.6686 -4.97675,19.22 -8.5,26.75 -7.75024,16.5641 -6.19389,25.7997 -7,35.5 -1.4909,17.9406 1.05559,42.2949 -0.25,60.25 -0.5401,7.4277 -2.11248,18.4959 -5.25,25.25 -6.50293,13.9988 -18.1315,11.6344 -22,3.5 -3.00609,-6.321 -13.33362,-14.4968 -19,0.75 -2.2041,5.9307 -2.0526,13.7198 -2.5,19.25 -0.87883,10.8632 -3.66277,14.7816 -10,18 -15.53044,7.8873 -20.50845,15.1022 -24.25,17 -19.62015,9.9516 -36.79141,2.5279 -12.25,-20.5 13.26157,-12.4437 8.69517,-25.6574 -1.5,-34 -11.87594,-9.718 -11.87441,-3.5463 -12.25,-21.75 -0.2266,-10.9824 2.11982,-12.6821 8.25,-12.25 10.81548,0.7623 9.25604,-12.3831 -5,-5 -5.5433,2.8709 -12.07123,8.1689 -17,12 -17.75872,13.8036 -3.0964,27.6126 3.25,35 5.31381,6.1854 18.00399,16.4533 5.75,33.5 -2.66923,3.7132 -12.27443,2.7493 -18,1.5 -7.43134,-1.6215 -19.98092,-5.2898 -24.5,-4.75 -17.52431,2.0931 -28.56559,-22.6976 -11,-35.75 12.62736,-9.383 10.76708,-37.1043 -1.5,-42 -14.0991,-5.6268 -18.58046,-39.8922 -14,-47 12.69887,-19.7057 25.02848,-35.55 35.5,-46.5 4.97837,-5.2059 11.11832,-13.057 11.5,-20.25 1.03993,-19.598 0.43362,-29.5865 -2.75,-30.25 -4.52526,-0.9431 -12.60033,-2.6552 -1,-8.5 3.08857,-1.5562 15.27561,-23.7918 1.75,-39 -8.04588,-9.0468 -16.91305,-23.1961 -21.5,-33 -6.29528,-13.4552 -27.2205,-21.1087 -30.5,-1 -0.94664,5.8044 -1.66944,28.4603 -1.5,31.5 0.8111,14.5512 9.52111,8.6368 14,7.5 22.5513,-5.7239 27.2314,12.1128 17.75,21.25 -4.34998,4.1878 -7.85015,9.6311 -11.75,13.25 -11.76451,10.9168 -21.86069,8.0147 -18,-7 3.3734,-13.1196 -2.16993,-24.4347 -19.5,-8 -5.93962,5.6327 -14.38095,13.4256 -19.75,17.5 -10.87641,8.2537 -22.50889,9.6131 -15.5,-3.25 5.44782,-9.9981 -6.22486,-22.079 -12.75,-26.75 -7.42499,-5.3152 -10.26412,-26.813 -4.5,-31 3.49251,-2.5369 17.23605,3.9007 19.5,17 1.45233,8.4032 5.39149,11.1548 10.5,13 11.50212,4.1546 15.27408,-4.5201 11.5,-12.5 -3.90093,-8.2481 -16.38345,-20.6227 -22,-20.5 -10.07489,0.2107 -19.69885,-6.6906 -24.5,-15.5 -1.98018,-3.6333 -7.29734,-6.3666 -10,-9.5 -14.68312,-17.023 6.21112,-31.6467 21,-25.5 12.9485,5.3818 15.80351,8.6625 14.25,-7.75 -1.87492,-19.8081 12.05599,-16.7966 18.75,-16.75 11.9095,0.0862 18.35221,2.1919 19.75,-11.25 1.12632,-10.8313 10.20768,-16.5897 19.75,-11.25 12.28601,6.875 21.92727,-6.7408 22,-15.25 0.0474,-5.5453 3.25489,-12.0995 12.25,-21.5 9.45144,-9.8774 19.04174,-15.9855 26.75,-14.5 7.8631,1.5153 10.30458,-0.0462 13.75,-2.75 2.42982,-1.9068 5.19528,-5.7931 8.25,-6.25 4.78552,-0.7158 7.59662,-2.2258 7.5,-2.25 z"/>
		<path id="Okinawa" d="m1860.5,2234 c8.2814,-30.9672 37.3961,-11.6335 18.5,10 -5.9596,6.8229 -9.6861,14.9625 -16.5,19 -6.5133,3.8594 -13.8229,10.6748 -12.5,14.25 1.7824,4.817 -0.312,7.4299 -2.5,9.25 -10.1563,8.4485 -5.3931,12.9384 -0.75,16 9.6839,6.3855 7.1917,11.3698 -4.25,15.5 -14.5231,5.2426 -12.141,12.8785 -8,16.5 20.6155,18.0294 -22.5026,44.8619 -23,3 -0.0772,-6.5345 11.6038,-6.6267 3,-21.5 -4.5008,-7.7805 -5.3597,-12.3099 5.75,-20 13.4134,-9.2847 13.0992,-22.9294 11.25,-25 -5.8123,-6.5082 -16.4473,-9.4201 3.5,-11.5 12.8397,-1.3388 19.4534,-2.8893 25.5,-25.5 z"/>
		<path id="Sado-island" d="m1189,1294.5 c7.3658,-22.2861 30.8481,-7.7172 19.5,7 -2.2158,2.8737 -2.7087,7.6087 -4,11 -5.1106,13.4223 1.4697,17.0538 5.25,16 9.8787,-2.7539 10.8855,6.4696 5.5,15 -4.6735,7.4027 -14.4513,14.4786 -20,21.25 -3.9253,4.7903 -11.3636,12.8899 -12.5,-2.25 -0.216,-2.8772 0.6177,-7.6401 1,-10.5 1.0994,-8.2239 -2.0525,-11.3476 -4.25,-12 -5.228,-1.5521 -10.15,-9.3973 -3.25,-16.75 3.7728,-4.0204 7.3384,-2.7003 7.25,-12.5 -0.0475,-5.2669 3.8471,-11.249 5.5,-16.25 z"/>
	</g>
	
	<g fill="none" stroke="#ffffff" stroke-width="4" opacity="0.88">
		<path id="borders" d="m1338.25,924.5 c0,0 6.8609,-4.5547 11.75,-7 4.657,-2.3292 10.4917,-4.3859 16.5,-4.25 18.5606,0.4197 38.7037,0.5478 56.75,0 13.7195,-0.4165 12.6872,-5.2923 14,-7.75 3.9803,-7.4516 22.3369,-10.8575 23.5,-1.25 0.8586,7.0919 -0.3611,12.5123 1.25,18.5 4.4836,16.6634 26.7678,7.0618 35.5,0.25 5.4596,-4.2589 3.5762,-14.8736 22.5,-15.75 16.9596,-0.7739 25,-15.5 25,-15.5 m-77.5,37.5 c-7.2433,5.9924 -11.3711,11.544 -12.5,33.25 -0.8415,16.1809 -0.9602,40.2259 -0.2754,55.2005 1.0311,22.5481 -4.7018,16.6257 -6.9746,28.5495 -0.8739,4.5848 -2.0317,13.09 -2.75,18 -2.2246,15.2058 2.4281,17.845 9,23.75 2.4221,2.1764 4.8889,5.828 6.75,8.5 2.8083,4.0318 6.0377,9.748 8.5,14 9.6256,16.6215 12.044,25.5488 -6.1159,36.2201 -14.595,8.5765 -18.7245,14.4434 -13.4937,31.7823 2.2103,7.3263 6.1068,5.7181 6.8119,24.0584 0.6447,16.7701 -0.2422,28.5172 -0.4905,40.0914 -0.3341,15.5707 -10.681,31.3795 -15.8239,36.0686 -28.7234,26.1887 -8.7044,26.2455 4.5628,40.3226 m-76.9709,22.0936 c0,0 8.5972,2.411 15.5723,2.439 5.7878,0.0239 21.5687,-0.6306 32.0825,-0.1877 14.3626,0.6052 20.6394,-10.342 22.7017,-15.0093 2.1763,-4.9255 7.7122,-10.0266 11.8199,-13.5085 2.1208,-1.7978 5.4936,-3.4512 7.8799,-4.878 11.4168,-6.8265 22.0821,-1.3045 29.7688,2.6895 12.8934,6.6994 37.0481,0.9267 36.0849,-0.2505 m13.3608,166.069 c-15.0963,-10.3032 -33.1032,-10.6767 -39.5475,1.9127 -4.2871,8.3753 -7.7928,16.9994 -25.5219,1.029 -9.405,-8.472 -18.3351,-16.7782 -26.7241,-25.98 -25.554,-28.0298 -44.3949,-1.4172 -59.4097,15.8854 -4.7795,5.5077 -12.0826,9.3533 -18.4219,13.8036 -9.8573,6.9201 -21.9504,5.5344 -35.6426,1.6252 -1.8346,-9.7218 -3.6213,-19.1597 -12.3463,-26.7817 -6.1062,-5.3342 -9.2953,-11.3446 -9.3343,-32.5086 -0.0201,-10.8906 0.9456,-19.5808 18.3502,-21.465 7.185,-0.7778 30.1657,-8.1015 27.4323,-31.9379 -1.2524,-10.921 1.4054,-15.6215 12.8828,-31.9955 -10.6525,-5.8887 -19.4089,-19.078 -18.1273,-30.7285 0.8843,-8.0392 0.0389,-14.0939 12.6481,-23.6044 17.5433,-13.2321 9.7032,-22.6523 -11.3588,-38.4033 -7.4565,-5.5762 -18.43,-10.3437 -25.7016,-18.8768 m5.5553,256.3022 c-4.8763,-8.7673 -27.8945,-7.0991 -35.361,14.8209 -6.5228,19.1496 -13.2697,29.6709 -27.5033,28.9924 -9.4999,5.8982 -16.0921,15.2302 -24.8077,22.1545 -15.5063,12.3194 -17.3224,38.7205 12.1584,40.7666 12.7398,0.8918 12.0806,16.166 10.8004,27.217 -1.7277,14.9142 2.5077,22.672 9.6278,28.3869 7.2705,5.8357 13.8302,12.4345 22.5541,20.0512 8.3947,7.3293 19.1423,11.7297 33.0187,15.1456 5.2848,3.1586 10.5792,4.3819 14.2316,8.014 12.928,12.8562 0.624,28.9585 -10.7317,30.5202 -9.686,1.3321 -16.7601,11.8099 -15.7891,16.2273 4.3692,0.4367 8.0219,0.3974 10.4265,2.7247 7.4218,7.1831 5.9071,13.1149 5.9348,17.0958 0.0722,10.3895 8.3671,18.7991 19.9025,19.0534 m-486.2864,-0.3007 c-3.0065,12.1383 14.114,24.1299 34.4987,19.7307 7.8042,-5.9046 12.3665,-8.8235 16.0279,-13.2778 3.0445,-3.7038 6.3688,-4.7529 9.2422,-6.462 3.5544,-2.1143 6.4057,-2.7902 9.2714,-6.335 7.769,-9.61 11.7857,-11.0803 15.8664,-15.3093 5.7437,-5.9525 7.4611,-8.7749 10.9783,-13.9316 4.5185,7.0804 11.6466,16.916 15.5045,29.5576 2.9291,9.598 7.6567,8.9677 8.9736,15.564 5.3239,26.6663 10.0332,36.6602 36.9736,34.0937 3.9204,12.4354 12.9764,12.9477 16.0048,22.4736 m-316.00019,69.9998 c-15.02597,-17.9978 -24.39356,-56.1967 -3.45172,-74.1921 23.2788,-20.0035 27.69068,-37.1058 -2.29828,-70.8079 m744.49989,-294.2504 c-1.8188,10.6737 -3.557,17.7087 -1.5,24 1.3659,4.1777 2.6296,7.6569 2.5,10.5 -0.3497,7.6707 0.6108,18.282 1.75,26.25 1.2613,8.822 -0.8498,17.9135 -3.75,21 -7.4329,7.9102 -18.9857,19.0463 -25.25,25.25 -5.3936,5.3414 -13.0774,10.8739 -22.5,14.5 -6.249,2.4048 -12.5404,6.2671 -20.75,6.25 -6.0791,-0.0127 -14.7018,0.1123 -20.75,-0.5 -28.1904,-2.8538 -26.5164,-3.654 -40,5.75 -11.6258,8.1083 -18.9019,16.6208 -32,31 -13.0823,14.3618 -15.0777,20.6665 -16.75,25 -7.4207,19.2296 -12.9556,14.2716 -20,15.25 -7.4346,1.0326 -22.3981,-0.2066 -25,-0.25 -11.1192,-0.1894 -9.7099,3.074 -9.75,8 -0.0716,8.8087 1.9963,20.4368 1.25,28.75 -0.54,6.0151 -0.791,12.984 -4.5,17.75 -4.7011,6.0408 -6.8926,9.1409 -7.25,14.5 -0.3303,4.9532 -4.5051,8.9583 -7,13.25 -1.9863,3.4169 -4.3953,6.9047 -6.5,10.25 -3.0275,4.812 -6.3288,12.1371 -10.5,16 -5.0229,4.6516 -12.5601,14.5145 -17.75,23 -3.2452,5.3059 -4.2741,10.1277 -11.25,15.25 -11.7192,8.6052 -23.5604,23.6666 -26.25,37 -1.5689,7.7779 -1.6533,14.0873 -1,26.5 m210.25,-185.25 c0,0 21.5204,0.0704 30.75,0 7.9313,-0.0586 10.1223,-0.3982 13.75,-2.5 3.9505,-2.2888 3.7436,-2.5467 12.25,-3 3.2953,-0.1756 11.5,0.25 11.5,0.25 m-86.25,-209.5 c9.6427,5.3916 11.2433,7.9539 11.5,18.5 0.449,18.4457 5.7825,21.9754 8.75,26.5 1.4985,2.2848 6.444,6.4306 4.75,13.5 -0.8222,3.4311 -0.7012,8.0008 -0.25,11.5 0.8647,6.706 4.4055,10.1202 7.5,14.75 2.8035,4.1944 9.2602,9.8566 12.75,13.5 8.7075,9.0908 20.2686,15.9972 27.75,23 8.0967,7.5787 28.0092,19.752 28.25,74.25 m-99.5,2 c-11.0401,-11.3712 0.7042,-29.576 26.5,-14.25 4.51,2.6795 16.9377,6.5798 32.5,2.75 3.5327,-0.8694 10.6208,-1.996 14.25,-2.25 5.7124,-0.3998 11.7044,0.5511 14.5,-2.5 3.0192,-3.2952 11.25,-2.25 11.25,-2.25 m-17.75,-47.5 c0,0 10.4905,4.3408 14.5,4.25 5.8274,-0.1319 16.5155,4.8897 23.25,11.5 9.6233,9.4458 25.3224,14.809 31.75,2.25 1.7772,-3.4725 5.5626,-8.1378 12.75,-10.5 3.8764,-1.2741 8.6639,-1.8591 12.5,-3.25 13.4544,-4.8782 25.7224,1.6002 30.75,9 6.9001,10.1558 16.204,10.796 22,10.5 m-335.9818,88.7062 c0,0 24.7007,30.8961 30.0684,37.5854 16.7311,20.8508 18.7192,-2.9971 20.0455,-12.0729 1.6398,-11.2215 8.97,-13.7538 18.6789,-14.123 5.7644,-0.2192 19.3137,0.8174 25.2847,-5.2392 m-294.5957,82.8935 c2.8186,-9.3731 9.8131,-6.9456 10.5,-21.25 0.508,-10.5803 9.5375,-17.537 18,-17.5 3.3,0.0144 10.7285,-0.1827 14,0.25 8.008,1.0591 18.3949,3.2596 23,6.75 8.6986,6.5929 12.8342,5.57 24.25,5.5 7.8358,-0.0491 15.4146,-0.597 23.25,-0.5 4.9858,0.0617 12.6735,-0.4795 17.25,1.5 8.2956,3.5881 29.75,1.75 29.75,1.75 m-70,-287.25 c0,0 14.3872,16.7287 21.75,21.75 8.6423,5.8939 12.8173,1.2763 15,-1.75 5.6855,-7.8829 14.4289,-8.063 16.75,-3 1.6744,3.6524 5.3944,8.7707 10,2.75 1.5854,-2.0725 8.686,-4.0433 14,-4.25 8.2047,-0.3192 13.3148,-4.1971 18.25,-11.5 2.7512,-4.0711 5.0747,-6.4578 9,-13.5 8.4112,-15.0901 20.4531,-9.8139 26.75,-2.25 8.0633,9.6857 9.166,24.172 20.5,31.25 m-125,4.75 c0,0 -10.0068,15.4809 -10,26.75 0.0062,10.2794 0.9983,23.8442 0.5,34.25 -0.731,15.2656 -1.5387,10.4134 -4.5,13.75 -2.8447,3.2052 -0.1461,9.9828 0.25,14.25 0.3296,3.5502 1.5706,7.1891 1.75,10.75 0.4206,8.3466 0.0751,16.2778 -0.25,27.25 -0.2504,8.451 -4.4486,20.5853 -11.5,25.25 -15.6962,10.3834 -5.4164,20.6201 3.5,26.5 9.5469,6.2956 16.6029,21.2847 20,32.5 4.0086,13.2342 1.8595,29.4835 -1,49.5 m-188,-163 c0,0 21.1364,15.8882 28.5,23.5 9.7804,10.1101 14.5854,11.1189 29.75,11.5 m17.75,-45.25 c0,0 7.193,-1.699 9.25,2.25 6.9399,13.3232 16.2826,-0.3544 19.5,-5.75 6.1678,-10.3432 12.9413,-10.6042 21.75,-10.5 16.0415,0.1845 49.25,0 49.25,0 m-164.5,132.75 c3.1087,-10.4124 16.6168,-21.0171 36.25,-22.25 18.5554,-1.1653 37.6833,-17.4102 16.75,-31 -6.9847,-4.5345 -9.8367,-22.6404 0.5,-30 12.1752,-8.6686 10.7663,-27.5559 9.5,-47 -0.3254,-4.9959 -2.3032,-12.2438 -2.25,-17.25 0.1283,-12.0707 0.4828,-29.9013 0.25,-42.5 -0.3187,-17.5014 6.9739,-21.0283 14,-23 m-256.75,237.25 c3.30208,6.3259 8.92082,12.0976 17,17.25 15.7309,10.0322 10.0358,17.7308 6,21.5 -15.013,14.0213 7.4055,20.8632 14.25,20 10.033,-1.2653 24.1072,9.5251 28.25,18.75 5.0457,11.2355 12.7249,20.0952 26.5,19 9.5908,-0.7626 17.1358,11.2847 23.5,18.5 8.0302,9.1041 11.6592,17.4307 19.5,16.5 2.2547,-0.2676 9.5976,0.6218 11.75,1.5 7.325,2.9886 11.9094,-5.762 16.5,-12.25 7.8478,-11.0916 17.8154,-15.8978 24,-16 9.5417,-0.1576 24.4671,-7.7772 24,-19.75 -0.5372,-13.77 -0.4192,-33.25 -1.25,-44.25 m-127.75,55 c7.2894,36.1419 7.5348,23.2295 4.75,59 m-10,35.25 c7.1715,4.2734 26.0332,1.6131 44.5,0.75 m-2.25,-160.25 c5.8886,6.6348 15.4147,22.2971 13.25,37.5 -1.1697,8.2148 2.2433,17.8682 5.5,24.5 1.9072,3.8837 5.4559,10.3129 7.25,14.25 5.4,11.85 11.414,20.7955 21.5,31.75 5.2715,5.7255 12.6827,6.1825 13.5,25.75 0.6573,15.737 0.0628,35.5054 0.5,51.25 0.3261,11.7417 -3.7955,19.9906 -8.5,26.25 -3.3023,4.3938 -5.7723,9.8771 -10,13.25 -11.5856,9.243 -20.9845,13.5983 -5.5,27.25 7.0506,6.216 13.1896,9.004 23,11 m-58.75,-171 c-1.7443,4.6516 -2.0561,8.2912 -2,14 0.1003,10.2006 -0.7504,25.5765 0,35.75 0.5009,6.7913 0.8574,12.9418 3.5,20 2.9046,7.7581 2.9196,21.636 -3,27.75 -5.0483,5.2141 -8.0659,16.8028 -7.75,23.75 0.2389,5.2531 -0.6724,14.9711 2,19.5 2.9746,5.041 6.6577,4.1446 9.75,6 3.0923,1.8554 9.1506,3.9728 12.75,3.75 5.0994,-0.3156 12.5,0 12.5,0 m-564.5,-83.5 c-1.15463,15.8038 -0.64337,24.8909 16.75,36.25 32.4841,21.2144 28.6806,-8.4152 33,-21.5 4.02877,-12.2044 10.93637,-23.6805 19.75,-31.5 2.9623,-2.6282 10.65755,-5.7427 13.5,-8.5 6.32924,-6.1397 11.84122,-6.4681 19,-5.75 22.30046,2.237 29.25792,-13.7715 36,-25.25 16.45305,-28.0116 16.41257,-23.4655 42.25,-23.25 27.53872,0.2297 25.92504,-0.1393 48.5,-19.5 6.73436,-5.7755 13.46407,-16.2976 22.25,-21 3.17949,-1.7017 7.29744,-2.6221 12,-4.5 5.06781,-2.0238 8.78433,-2.7199 13.75,-1.75 5.53914,1.0819 9.84312,0.6407 19,-5.5 14.50897,-9.7298 18.30098,-1.9841 22.75,2.75 5.59638,5.955 14.15162,8.4088 19.75,8.25 7.2793,-0.2135 22.5,-0.5 22.5,-0.5 m-145.75,-28.25 c-1.29079,10.7082 0.68627,20.524 -14.5,31.5 -17.73695,12.8195 -14.87059,31.4414 -1.5,35 7.38241,1.9648 14.16989,11.9912 12.5,16.5 -2.42603,6.5504 4.1577,16.7646 6.75,18.75 6.49731,4.9763 6.01791,10.9804 7.75,15.75 1.50178,4.1354 3.95918,10.8157 6.5,14.75 4.88297,7.561 14.13784,24.25 14,24.25 m-198.75,16 c0,0 8.2442,10.117 11.75,14.75 3.31451,4.3802 4.59102,10.4118 11.25,15 2.76195,1.9031 9.75,5.25 9.75,5.25 m58.25,214.25 c16.11112,-19.299 14.72665,-13.0691 10.75,-25 -0.93548,-2.8067 -4.38666,-3.7181 -5,-8.75 -0.53144,-4.36 -1.02647,-6.945 -0.5,-9 0.93068,-3.6327 5.08373,-7.0417 8,-9 3.98449,-2.6756 11.09918,-11.0824 16.25,-15 5.0521,-3.8425 6.08381,-11.0604 5.25,-16.5 -1.08977,-7.1095 2.53535,-14.1566 7.5,-17.5 10.08303,-6.7903 17.04039,-20.6035 22.75,-30.25 3.61063,-6.1002 2.32252,-12.6673 14,-19.25 5.43903,-3.066 14.6195,-7.4894 18.5,-11 4.02454,-3.6409 16.66469,-4.7061 26.25,-10.25 4.86201,-2.812 19.13477,-3.2948 26,2.25 4.20238,3.3941 9.59381,5.0158 15.5,4.5 9.90421,-0.865 11.92114,1.1802 18.5,5 15.88624,9.2237 43.5,37 43.5,37 m-90.75,-51.25 c0,0 -2.59704,-13.4766 3.5,-17.25 3.36711,-2.0839 10.62577,-6.0535 13,-8.5 4.52898,-4.6669 12.42502,-5.6807 18.75,-7 4.95353,-1.0332 10.01167,-1.4133 14.5,-3.75 2.79602,-1.4556 10.57655,-3.0394 14,-3.25 15.85704,-0.96 26.80434,-13.8551 34.25,-20.25 m-109.75,32.75 c10.15787,8.85 11.42486,16.7036 11,27.5 m-513,124.5 c0,0 -1.23303,13.1795 0.5,16.25 1.66226,2.9451 4.41063,5.4935 7.25,8.75 4.61872,5.2972 10.8595,12.0671 16.25,13.5 6.02265,1.6009 10.50267,3.8484 15.5,7.75 3.81151,2.9758 12.75,4.75 12.75,4.75 m-23.5,-78.5 c6.4507,8.3859 12.23146,8.2983 18.25,8.5 16.65705,0.5583 35.04165,0.3893 47.5,0.25 8.17429,-0.0942 14.92851,2.7473 7.5,12.75 -3.01198,4.0557 -5.69737,6.1617 -9,10.5 -6.08838,7.9977 -10.05277,10.9387 -18.25,18.5 m14.25,26.25 c0,0 5.6102,-7.2217 9,-8.75 3.31136,-1.4929 7.93376,-3.7646 10.25,-5.25 5.5504,-3.5594 12.03065,-3.4041 18.25,-4.5 3.07198,-0.5413 17.37289,-4.2045 18.25,-15.75 0.46228,-6.0851 1.2426,-15.4179 0.5,-21.75 -1.00904,-8.604 5.14762,-18.9473 21,-25.5 10.15009,-4.1956 24.25044,-25.9994 24.25,-26 m-48,80.75 c14.51831,13.008 18.06468,18.5988 24.25,5.75 8.58669,-17.8371 30.75095,-23.044 28.25,3.5 -1.36392,14.4761 21.0115,43.4035 37.75,43.25 5.73958,-0.0526 13.72149,-1.4299 18.5,1.75 3.71936,2.475 11.80902,-0.1572 15.5,-5.25 6.04069,-8.3349 27.13369,-5.966 27.25,-5.75 m-81.5,-1 c0,0 -12.79706,18.3474 -22.5,29 -8.9428,9.8181 -24.40443,19.4487 -11.25,36 3.89977,4.9068 7.23956,13.2377 7.5,19.5 0.25906,6.2291 0.10241,12.9931 -0.75,18.25 -1.68494,10.3911 -5.93784,18.0104 -17.75,20.5 -10.65328,2.2453 -25.25,10.25 -25.25,10.25 m-63,-11.75 c0,0 33.56325,-3.6724 46.25,0.5 11.49307,3.7798 23.41665,15.8015 28.25,27.75 5.4534,13.4813 13.14956,23.7337 21.5,28.75 16.65365,10.0042 15.64974,11.0596 21.75,15 16.37987,10.5805 10.75,32.75 10.75,32.75 m1015.4405,-1335.5162 c0,0 13.8368,-0.2108 19.6146,-0.3502 7.2897,-0.1759 14.3723,1.608 19.0894,3.5026 11.8913,4.7761 25.0399,9.1279 35.3765,13.4851 20.0863,8.4668 25.5552,2.7729 33.8004,-2.8021 5.4253,-3.6683 13.7016,-9.4441 18.739,-7.881 4.6825,1.453 10.3505,4.534 15.937,4.0281 3.3459,-0.303 10.9503,2.2912 13.6602,4.7286 4.4895,4.0381 12.0777,5.8573 16.6375,10.6829 9.9585,10.5391 21.6116,8.5904 30.648,4.9037 4.1691,-1.7009 14.711,-4.028 14.711,-4.028"/>
		<path id="line-12" d="m1551.5,1727.5 -68.5,-56"/>
		<path id="line-13" d="m1474.5,1855.5 -80.5,-171"/>
		<path id="line-14" d="m1390.5,1857 -7,-128.5"/>
		<path id="line-17" d="m970,1558 32,64.5"/>
		<path id="line-26" d="m840,1699.5 6.5,109.5"/>
		<path id="line-27" d="m850,2094 35,-165"/>
		<path id="line-29" d="m1000,2040.5 -66,-59"/>
		<path id="line-30" d="m925,2160 -5,-89"/>
		<path id="line-31" d="m659,1767.5 -2.5,49"/>
		<path id="line-32" d="m423,1862.5 46.5,36"/>
		<path id="line-37" d="m675,2005 33,-47"/>
		<path id="line-38" d="m480,2265 30,-115"/>
		<path id="line-39" d="m649.5,2175 -23.5,-88"/>
		<path id="line-41" d="m140.5,2098.5 14,80.5"/>
		<path id="line-42" d="m120,2328 30,-66"/>
	</g>
	
	<path d="m1570,2500 v-215 l160,-195 h270" fill="none" stroke="#d8d8d5" stroke-width="7"/>
	
</svg>