<svg xmlns="http://www.w3.org/2000/svg" width="1120" height="640" viewBox="0 0 1120 640" role="img" aria-label="Codex 教程工作台示意图">
  <rect width="1120" height="640" fill="#111827"/>
  <rect x="54" y="58" width="1058" height="548" rx="8" fill="#fbfbfc"/>
  <rect x="86" y="94" width="420" height="472" rx="8" fill="#ffffff" stroke="#e6e8ef"/>
  <rect x="548" y="94" width="470" height="472" rx="8" fill="#0f172a"/>
  <text x="112" y="144" fill="#111827" font-family="Arial" font-size="30" font-weight="700">Codex 学习路径</text>
  <circle cx="126" cy="205" r="14" fill="#087f8c"/>
  <circle cx="126" cy="275" r="14" fill="#b64b36"/>
  <circle cx="126" cy="345" r="14" fill="#2d6a4f"/>
  <circle cx="126" cy="415" r="14" fill="#334155"/>
  <text x="160" y="213" fill="#374151" font-family="Arial" font-size="22">读仓库与明确目标</text>
  <text x="160" y="283" fill="#374151" font-family="Arial" font-size="22">生成补丁与解释</text>
  <text x="160" y="353" fill="#374151" font-family="Arial" font-size="22">运行测试与修复</text>
  <text x="160" y="423" fill="#374151" font-family="Arial" font-size="22">发布与自动更新</text>
  <text x="585" y="146" fill="#93c5fd" font-family="Arial" font-size="20">codex task</text>
  <text x="585" y="195" fill="#e5e7eb" font-family="Arial" font-size="28" font-weight="700">Build a global teaching blog</text>
  <rect x="585" y="238" width="360" height="20" rx="4" fill="#22c55e"/>
  <rect x="585" y="284" width="300" height="20" rx="4" fill="#38bdf8"/>
  <rect x="585" y="330" width="390" height="20" rx="4" fill="#f97316"/>
  <rect x="585" y="376" width="260" height="20" rx="4" fill="#a78bfa"/>
  <text x="585" y="468" fill="#cbd5e1" font-family="Arial" font-size="22">✓ sources  ✓ screenshots  ✓ docs</text>
</svg>
